<?xml version="1.0" encoding="UTF-8"?>
<svg xmlns="http://www.w3.org/2000/svg" viewBox="0 0 481.64 430.64">
  <style>
    .fg { fill: #181c28; }
    .fg-soft { fill: #181c28; opacity: .7; }
    @media (prefers-color-scheme: dark) {
      .fg { fill: #ffffff; }
      .fg-soft { fill: #ffffff; opacity: .7; }
    }
  </style>
  <path class="fg-soft" d="M389.4,115.13l-62.54,39.62c-9.46-15.15-22.14-27.97-37.16-37.68-8.93-5.83-18.52-10.49-28.75-13.86-5.18-1.68-8.67-6.47-8.16-11.78l5.96-63.7c.65-6.99,5.7-12.43,12.04-13.98,2.33-.52,4.79-.52,7.38.13,20.59,5.31,39.88,13.73,57.62,24.73,22.53,14.11,42.21,32.37,58.01,53.86,1.56,2.07,2.33,4.27,2.85,6.6,0,.13.13.13,0,.26.91,5.96-1.68,12.3-7.25,15.8Z"/>
  <path class="fg" d="M344.67,226.47c-3.6,63.51-54.28,111.08-121.27,111.08h-.25c-66.73-.13-118.06-47.06-121.66-111.08,0-2.3-.13-4.59-.13-7.01,0-67.46,52.61-118.6,121.78-118.73V8.27C102.66,8.39,0,91.93,0,219.45,0,221.88,0,224.17.13,226.47c3.72,123.06,105.35,204.05,223.03,204.17h.25c118.57,0,219.05-80.47,222.64-204.17h-101.37Z"/>
  <path class="fg-soft" d="M467.85,183.36l-35.87,4.79-74.84,9.84c-7.25.91-14.11-3.5-16.06-10.62-3.24-11.65-8.02-22.66-14.24-32.63-9.46-15.15-22.14-27.97-37.16-37.68l45.06-76.78,1.04-1.68,18.13-30.94c4.66-7.9,15.27-10.1,22.66-4.66,28.22,19.81,52.44,45.45,70.82,75.23,16.06,25.9,27.71,55.03,33.93,86.23,1.81,9.07-4.27,17.61-13.47,18.9Z"/>
</svg>
