<?xml version="1.0" encoding="UTF-8"?>
<svg id="Layer_1" xmlns="http://www.w3.org/2000/svg" version="1.1" viewBox="0 0 1391.01 135.32">
  <!-- Generator: Adobe Illustrator 30.3.0, SVG Export Plug-In . SVG Version: 2.1.3 Build 182)  -->
  <defs>
    <style>
      .st0, .st1 {
        fill: #fff;
      }

      .st2, .st1 {
        opacity: .7;
      }

      .st1 {
        isolation: isolate;
      }
    </style>
  </defs>
  <path class="st1" d="M1133.46,35.64l-19.36,12.26c-2.93-4.69-6.85-8.66-11.5-11.66-2.77-1.8-5.73-3.25-8.9-4.29-1.6-.52-2.69-2-2.52-3.65l1.84-19.72c.2-2.16,1.76-3.85,3.73-4.33.72-.16,1.48-.16,2.28.04,6.37,1.64,12.35,4.25,17.84,7.66,6.97,4.37,13.07,10.02,17.96,16.67.48.64.72,1.32.88,2.04,0,.04.04.04,0,.08.28,1.84-.52,3.81-2.24,4.89h0Z"/>
  <g>
    <path class="st0" d="M115.51,112.46c-7.22,13.24-22.46,22.86-46.33,22.86C26.87,135.32,0,108.25,0,69.54,0,34.84,26.67,4.96,69.19,4.96c32.09,0,55.55,14.24,61.17,39.11l-16.44,2.41c-6.42-17.65-23.87-25.87-45.93-25.87-28.68,0-49.94,20.26-49.94,48.93s21.26,50.14,49.94,50.14c25.67,0,44.72-14.44,47.53-29.68v-6.62h-46.53v-15.24h62.17v65.18h-15.64v-20.86h-.01Z"/>
    <path class="st0" d="M144.4,133.32V6.97h50.34c26.27,0,49.33,6.82,49.33,37.7,0,20.46-8.82,35.1-30.28,39.91l35.7,48.73h-23.26l-33.7-47.73h-30.08v47.73h-18.05ZM190.73,69.94c18.65,0,35.3-2.21,35.3-24.87,0-19.05-11.83-22.46-31.89-22.46h-31.69v47.33h28.28Z"/>
    <path class="st0" d="M319.89,4.96c37.5,0,66.99,26.87,66.99,65.18s-29.48,65.18-66.99,65.18-67.38-26.87-67.38-65.18S282.39,4.96,319.89,4.96ZM368.83,70.14c0-27.88-21.06-49.14-48.94-49.14s-49.33,21.06-49.33,49.14,21.26,49.13,49.33,49.13,48.94-21.26,48.94-49.13h0Z"/>
    <path class="st0" d="M413.96,6.97v71c0,24.27,9.63,41.31,35.7,41.31s35.7-17.25,35.7-41.31V6.97h17.45v71.8c0,34.7-18.05,56.56-53.35,56.56s-53.55-22.06-53.55-56.56V6.97h18.05,0Z"/>
    <path class="st0" d="M519.06,133.32V6.97h18.05l72.4,96.67V6.97h18.05v126.35h-18.25l-72.2-96.67v96.67h-18.05Z"/>
    <path class="st0" d="M647.02,133.32V6.97h59.16c34.09,0,62.17,19.25,62.17,63.17s-28.08,63.17-62.17,63.17h-59.16ZM665.07,117.67h40.11c24.87,0,45.13-13.24,45.13-47.53s-20.26-47.53-45.13-47.53h-40.11v95.06Z"/>
  </g>
  <g>
    <path class="st0" d="M801.62,133.32V4.76h96.07v26.67h-64.78v25.27h59.96v24.27h-59.96v52.34h-31.29Z"/>
    <path class="st0" d="M912.11,133.32V4.76h31.29v101.88h63.77v26.67h-95.06Z"/>
    <path class="st0" d="M1181.24,4.76h33.69l4.81,103.08,49.13-103.08h34.9l8.82,102.68,44.93-102.68h33.49l-58.16,128.55h-45.72l-8.62-87.64-43.32,87.64h-45.52l-8.42-128.55h-.01Z"/>
    <path class="st0" d="M1119.61,70.11c-1.11,19.66-16.8,34.39-37.54,34.39h-.08c-20.66-.04-36.55-14.57-37.66-34.39,0-.71-.04-1.42-.04-2.17,0-20.88,16.29-36.72,37.7-36.76V2.56c-37.3.04-69.08,25.9-69.08,65.38,0,.75,0,1.46.04,2.17,1.15,38.1,32.61,63.17,69.04,63.21h.08c36.71,0,67.81-24.91,68.92-63.21h-31.38,0Z"/>
  </g>
  <g class="st2">
    <path class="st0" d="M1157.75,56.76l-11.1,1.48-23.17,3.05c-2.24.28-4.37-1.08-4.97-3.29-1-3.61-2.48-7.01-4.41-10.1-2.93-4.69-6.85-8.66-11.5-11.66l13.95-23.77.32-.52,5.61-9.58c1.44-2.45,4.73-3.13,7.01-1.44,8.74,6.13,16.23,14.07,21.92,23.29,4.97,8.02,8.58,17.04,10.5,26.7.56,2.81-1.32,5.45-4.17,5.85h.01Z"/>
  </g>
</svg>